<mxfile host="app.diagrams.net" modified="2022-02-24T03:53:59.361Z" agent="5.0 (Windows NT 10.0; Win64; x64) AppleWebKit/537.36 (KHTML, like Gecko) Chrome/98.0.4758.102 Safari/537.36" etag="W_ZEkijAVdtVY0MANWAs" version="16.6.1" type="github">
  <diagram id="_88M4rZaeOAy3bHlZC3f" name="Page-1">
    <mxGraphModel dx="1185" dy="635" grid="1" gridSize="10" guides="1" tooltips="1" connect="1" arrows="1" fold="1" page="1" pageScale="1" pageWidth="827" pageHeight="1169" math="0" shadow="0">
      <root>
        <mxCell id="0" />
        <mxCell id="1" parent="0" />
        <mxCell id="IqyMs4pkEaya7170j3vu-3" value="退换退货" style="edgeStyle=orthogonalEdgeStyle;rounded=0;orthogonalLoop=1;jettySize=auto;html=1;exitX=1;exitY=0.5;exitDx=0;exitDy=0;entryX=0;entryY=0.5;entryDx=0;entryDy=0;" edge="1" parent="1" source="IqyMs4pkEaya7170j3vu-1" target="IqyMs4pkEaya7170j3vu-2">
          <mxGeometry relative="1" as="geometry" />
        </mxCell>
        <mxCell id="IqyMs4pkEaya7170j3vu-1" value="申请售后" style="ellipse;whiteSpace=wrap;html=1;" vertex="1" parent="1">
          <mxGeometry x="80" y="65" width="70" height="60" as="geometry" />
        </mxCell>
        <mxCell id="IqyMs4pkEaya7170j3vu-8" value="驳回" style="edgeStyle=orthogonalEdgeStyle;rounded=0;orthogonalLoop=1;jettySize=auto;html=1;exitX=0.5;exitY=1;exitDx=0;exitDy=0;entryX=0.5;entryY=0;entryDx=0;entryDy=0;fontColor=#000000;" edge="1" parent="1" source="IqyMs4pkEaya7170j3vu-2" target="IqyMs4pkEaya7170j3vu-7">
          <mxGeometry relative="1" as="geometry" />
        </mxCell>
        <mxCell id="IqyMs4pkEaya7170j3vu-10" style="edgeStyle=orthogonalEdgeStyle;rounded=0;orthogonalLoop=1;jettySize=auto;html=1;exitX=1;exitY=0.5;exitDx=0;exitDy=0;fontSize=12;fontColor=#000000;" edge="1" parent="1" source="IqyMs4pkEaya7170j3vu-2" target="IqyMs4pkEaya7170j3vu-5">
          <mxGeometry relative="1" as="geometry" />
        </mxCell>
        <mxCell id="IqyMs4pkEaya7170j3vu-2" value="&lt;pre style=&quot;background-color: rgb(255 , 255 , 255)&quot;&gt;&lt;span style=&quot;font-style: italic&quot;&gt;待检测审核&lt;/span&gt;（71）&lt;/pre&gt;" style="ellipse;whiteSpace=wrap;html=1;" vertex="1" parent="1">
          <mxGeometry x="225" y="60" width="110" height="70" as="geometry" />
        </mxCell>
        <mxCell id="IqyMs4pkEaya7170j3vu-12" value="检测通过" style="edgeStyle=orthogonalEdgeStyle;rounded=0;orthogonalLoop=1;jettySize=auto;html=1;exitX=1;exitY=0.5;exitDx=0;exitDy=0;entryX=0;entryY=0.438;entryDx=0;entryDy=0;entryPerimeter=0;fontSize=12;fontColor=#000000;" edge="1" parent="1" source="IqyMs4pkEaya7170j3vu-5" target="IqyMs4pkEaya7170j3vu-11">
          <mxGeometry relative="1" as="geometry" />
        </mxCell>
        <mxCell id="IqyMs4pkEaya7170j3vu-5" value="待检测（40）" style="ellipse;whiteSpace=wrap;html=1;fontColor=#000000;" vertex="1" parent="1">
          <mxGeometry x="430" y="55" width="120" height="80" as="geometry" />
        </mxCell>
        <mxCell id="IqyMs4pkEaya7170j3vu-7" value="检测驳回（-71）" style="ellipse;whiteSpace=wrap;html=1;fontColor=#000000;" vertex="1" parent="1">
          <mxGeometry x="220" y="180" width="120" height="80" as="geometry" />
        </mxCell>
        <mxCell id="IqyMs4pkEaya7170j3vu-11" value="待总部处理" style="ellipse;whiteSpace=wrap;html=1;fontSize=12;fontColor=#000000;" vertex="1" parent="1">
          <mxGeometry x="630" y="60" width="120" height="80" as="geometry" />
        </mxCell>
      </root>
    </mxGraphModel>
  </diagram>
</mxfile>
